<svg xmlns="http://www.w3.org/2000/svg" height="266.055" width="429.748" xmlns:v="https://vecta.io/nano"><path d="M403.425 84.429l-4.48-3.52c.473-.811 1.307-2.069 2.057-3.129 4.361-6.321 12.539-18.273 12.539-35.336 0-9.799-3.581-20.432-12.211-28.601C392.707 5.672 379.068-.004 359.064 0c-18.979.003-40.348 6.236-58.813 17.152-8.281 4.911-15.1 10.203-19.875 15.284-4.76 5.081-7.52 9.941-7.533 14.124-.005 2.028.777 3.893 2.253 5.355 1.171 1.151 2.731 2.033 4.62 2.719 1.976-12.844 50.716-40.768 86.408-36.677 15.96 1.829 27.84 13.709 26.188 30.167-1.579 15.743-17.604 24.291-31.401 28.411-7.699 2.299-15.428 4.532-22.815 7.736-3.627 1.572-7.292 3.36-10.469 5.732-2.316 1.728-5.316 3.972-5.151 7.213 5.459 3.715 14.124 5.869 19.76 6.276a197.01 197.01 0 0 0 10.991.567c10.537.317 21.607.677 31.447 4.896 13.808 5.921 21.933 20.196 18.96 35.137-3.823 19.207-23.197 30.829-41.181 34.159-19.235 3.563-43.365.775-56.068-15.827-5.192-6.784-8.464-15.879-7.048-24.456 1.573-9.527 8.267-18.641 17.913-21.08 6.084-1.537 12.493-.113 17.325 3.48a25.55 25.55 0 0 0-4.184-4.644c-5.588-4.851-13.445-7.576-22.56-7.576-11.249-.003-20.277 4.667-26.459 11.592s-9.545 16.089-9.551 25.119c-.003 14.208 6.556 28.479 19.328 39.176 12.779 10.699 31.764 17.824 56.621 17.824 19.705-.001 39.583-6.507 54.627-17.807 12.461-9.387 27.357-26.496 27.351-54.561.007-25.681-17.237-38.376-26.323-45.06m-65.349 55.592c-.092-2.677-.207-3.645-.207-3.645-.141-1.149-.357-2.296-.687-3.407-2.863-9.671-14.393-13.907-22.735-7.983-6.915 4.911-9.631 14.337-7.127 22.279 6.369 20.184 29.703 24.375 48.103 21.601 9.059-1.365 17.971-4.633 25.175-10.404 6.971-5.585 12.271-14.204 10.545-23.232-1.144-13.537-11.411-20.277-28.149-22.221.795 1.632 3.376 13.491-5.051 21.149-5.149 4.681-10.647 5.92-18.047 5.931-.288 0-1.821-.068-1.821-.068M33.64 126.948c1.06.82 2.24 1.691 3.365 2.42 2.236 1.481 4.471 2.757 6.848 3.989 2.371 1.244 4.793 2.391 7.281 3.351 0 0 3.491 1.435 7.575 2.481a68.86 68.86 0 0 0 7.781 1.495c2.617.356 5.249.435 7.877.4 0 0 4.34-.129 7.84-.777 8.475-1.4 17.097-7.74 19.307-9.312l3.537-2.512c1.288-.891 2.613-1.744 4.001-2.521 2.765-1.561 5.749-2.872 8.943-3.72 3.196-.833 6.183-1.153 9.564-.792.423.033 2.98.289 6.157 1.499 0 0 2.228.856 3.46 1.641a37.43 37.43 0 0 1 4.041 2.965c6.019 5.093 23.636 26.347 28.715 30.893 5.999 5.371 13.533 10.832 19.639 12.451 11.795 3.125 21.096.281 31.681-6.411 11.689-7.391 21.161-18.421 29.22-29.513 8.499-11.701 16.157-24.46 21.151-38.072 2.472-6.737 4.464-14.128 3.133-21.336-.136-.741-.339-1.44-.589-2.099-1.681 3.579-3.488 7.105-5.413 10.573-3.099 5.556-6.499 10.972-10.299 16.16-3.804 5.181-7.989 10.155-12.768 14.691-4.772 4.523-10.16 8.643-16.439 11.669a49.97 49.97 0 0 1-5.317 2.145 42.71 42.71 0 0 1-5.681 1.428c-3.888.669-7.971.737-11.94.076-3.977-.636-7.792-1.988-11.285-3.761-3.479-1.805-6.661-4.009-9.529-6.456l-2.085-1.867-1.887-1.795-3.739-3.603c-2.464-2.415-6.863-7.349-6.863-7.349s-7.628-8.917-13.904-15.661c0 0-5.875-6.38-9.083-9.099-10.98-9.303-24.367-7.257-36.237-.8-10.991 5.979-20.784 17.444-33.941 18.259-10.248.635-19.612-3.215-27.148-10.028C40.596 79 30.993 69.581 22.953 58.565c-3.564-4.883-11.568-12.167-19.608-5.9s-.511 27.271 11.195 49.249c0 0 10.492 18.379 19.1 25.033m293.733-43.989c5.721-3.812 12.113-6.776 18.391-9.527 12.004-5.261 30.339-7.867 34.784-21.56 4.728-14.56-8.507-24.02-21.927-24.475-36.311-1.231-72.216 21.879-74.007 28.491 1.277.228 2.633.415 4.065.568 6.103.64 13.552.661 21.564.661h1.431c12.353 0 21.077.332 26.659 1.145 2.789.407 4.793.94 6.035 1.569 1.259.651 1.657 1.269 1.665 1.972-.001.496-.317.944-1.084 1.695-2.667 2.675-9.671 6.643-15.969 11.003-3.156 2.185-6.145 4.48-8.371 6.823-2.216 2.339-3.716 4.737-3.739 7.212v.117c.015 1.712.519 3.237 1.381 4.588-.116-1.128 1.359-3.033 1.981-3.885 1.892-2.592 4.489-4.631 7.14-6.397m-134.105 28.132c2.247 2.027 4.644 3.777 7.151 5.197 2.517 1.385 5.149 2.427 7.872 2.98 2.717.573 5.523.661 8.353.321 1.413-.184 2.832-.464 4.248-.843 1.413-.399 2.82-.881 4.217-1.445 5.135-2.127 10.045-5.355 14.6-9.132 4.567-3.78 8.809-8.105 12.785-12.703 3.976-4.604 7.68-9.501 11.159-14.573a193.87 193.87 0 0 0 7.401-11.715c-1.86-1.443-4.275-2.168-7.016-1.991-6.501.421-12.093 4.724-16.641 9.032-4.856 4.601-9.16 9.709-14.256 14.067-5.087 4.347-10.395 8.471-16.133 11.925-7.561 4.553-16.072 7.805-24.697 7.985l.957.893m-65.963 17.845c-2.375-.129-4.785.195-7.145.929-2.36.752-4.66 1.88-6.856 3.264-1.103.687-2.173 1.451-3.224 2.252 0 0-8.413 6.239-11.075 7.823-5.373 3.088-8.664 5.437-14.792 6.86-5.224 1.191-9.333 1.377-9.333 1.377-3.137.196-8.076.355-14.101-.531-8.108-1.191-13.624-3.316-13.624-3.316-2.524-.843-4.984-1.841-7.401-2.929 4.577 6.656 9.601 13.336 15.833 18.177 5.272 4.096 11.652 6.848 18.34 7.38 11.033.879 18.701-4.4 26.871-11.415 5.84-5.016 10.844-11.065 15.889-16.86 3.516-4.037 7.095-9.349 11.505-12.924h0c-.296-.025-.588-.083-.887-.088m-16.801-88.265c1.201 1.356 3.108 1.995 5.317 2.412 1.099.195 2.268.307 3.464.36.577.035 1.243.061 1.768.031l.827-.019.835-.068c2.225-.179 4.495-.756 6.704-1.531 2.197-.817 4.369-1.844 6.304-3.131 3.121-2.075 4.161-3.591 4.727-4.424.535-.848.915-1.707 1.064-2.547.155-.84.067-1.707-.377-2.675-.387-.819-1.015-1.673-2.231-2.753-3.409-3.027-9.003-3.264-12.303-2.888-7.652.872-14.096 5.348-16.487 10.136-.603 1.285-.915 2.853-.784 4.169.123 1.241.569 2.237 1.172 2.927m20.376 20.325c11.752-1.339 20.323-10.832 19.141-21.203-.315-2.763-1.297-5.303-2.78-7.527.151 1.624-.089 3.22-.541 4.659-.528 1.739-1.396 3.293-2.399 4.715-1.005 1.403-2.141 2.613-3.371 3.707-2.451 2.187-5.252 3.844-8.261 5.051-3.021 1.161-6.267 1.9-9.635 1.885 0 0-1.22.028-2.361-.108a36.18 36.18 0 0 1-2.568-.421c-1.568-.345-3.147-.805-4.696-1.511-.772-.355-2.621-1.207-4.423-2.891-.485-.453-.936-.973-1.345-1.531 1.812 9.739 11.936 16.461 23.239 15.175" fill="#f96815"/><path d="M83.069 221.24l-10.902 33.025-10.586-32.898h-8.43l15.467 44.688h6.719l10.902-31.883 10.9 31.883h6.783l15.404-44.687h-8.178l-10.584 32.898L89.66 221.24zm45.957.127v44.369h7.797v-44.369zm20.918 0v44.371h7.668v-31.566l24.469 31.566h6.527v-44.371h-7.67v30.68l-23.768-30.68zm51.342 0v44.371h16.543c13.947 0 23.58-9.7 23.58-22.187v-.125c0-12.488-9.633-22.059-23.58-22.059zm43.865 0v7.227h14.07v37.143h7.861v-37.143h14.072v-7.227zm45.512 0v44.371h7.795v-15.467h9.764l10.9 15.467h9.256l-11.979-16.797c6.148-1.776 10.521-6.15 10.521-13.439v-.127c0-3.867-1.33-7.162-3.676-9.57-2.853-2.789-7.227-4.437-12.805-4.437zm47.096 0v44.371h33.215v-6.973h-25.418v-11.918h22.248v-6.971h-22.248V228.34h25.102v-6.973zm-128.676 7.1h8.746c9.319 0 15.404 6.401 15.404 15.084v.127c0 8.685-6.086 14.961-15.404 14.961h-8.746zm89.375 0h11.348c5.768 0 9.191 2.597 9.191 7.352v.127c0 4.5-3.55 7.416-9.127 7.416h-11.412z" fill="#929090"/></svg>